<?xml version="1.0" encoding="iso-8859-1"?>
<!-- Generator: Adobe Illustrator 19.0.0, SVG Export Plug-In . SVG Version: 6.00 Build 0)  -->
<svg version="1.1" id="Layer_1" xmlns="http://www.w3.org/2000/svg" xmlns:xlink="http://www.w3.org/1999/xlink" x="0px" y="0px"
	 viewBox="0 0 512 512" style="enable-background:new 0 0 512 512;" xml:space="preserve">
<g>
	<g>
		<path d="M496.976,275.333h-59.082H290.189c-5.438,0-9.847,4.409-9.847,9.847s4.409,9.847,9.847,9.847h138.133v59.082h-79.051
			c-5.438,0-9.847,4.409-9.847,9.847s4.409,9.847,9.847,9.847h88.623h59.082c5.438,0,10.122-4.022,10.122-9.46v-78.776
			C507.098,280.129,502.414,275.333,496.976,275.333z M487.404,354.109h-39.388v-59.082h39.388V354.109z"/>
	</g>
</g>
<g>
	<g>
		<path d="M387.005,496.727L91.595,53.623c-3.015-4.524-9.131-5.749-13.655-2.731c-4.525,3.016-5.748,8.937-2.731,13.462
			l140.782,210.979H14.474c-5.438,0-9.572,4.796-9.572,10.234v78.776c0,5.438,4.134,9.46,9.572,9.46h265.869
			c0.416,0,0.811,0.12,1.213,0.072l89.064,133.692c1.897,2.846,5.02,4.433,8.203,4.433c1.876,0,3.774-0.51,5.452-1.63
			C388.8,507.353,390.022,501.251,387.005,496.727z M24.596,354.109v-59.082H229.12l39.388,59.082H24.596z"/>
	</g>
</g>
<g>
	<g>
		<path d="M486.97,244.321l-15.24-83.776c3.642-6.992,5.552-14.75,5.552-22.707c0-17.865-9.798-34.122-24.84-42.751
			c3.386-8.256,5.146-17.129,5.146-26.16C457.588,30.918,426.667,0,388.659,0c-38.008,0-68.929,30.923-68.929,68.931
			c0,34.668,25.723,63.439,59.087,68.229c-0.003,0.233-0.005,0.467-0.005,0.701c0,26.083,20.389,47.493,46.065,49.134l23.491,62.448
			c1.441,3.843,5.115,6.196,9.219,6.196h19.694c2.92,0,5.689-1.102,7.56-3.344C486.713,250.052,487.492,247.194,486.97,244.321z
			 M464.412,235.945l-23.515-62.51c-1.557-4.154-5.688-6.651-10.118-6.253c-0.897,0.082-1.815,0.172-2.732,0.172
			c-16.289,0-29.541-13.228-29.541-29.517c0-2.512,0.314-4.991,0.933-7.39c0.769-2.987,0.095-6.157-1.822-8.574
			c-1.918-2.417-4.923-3.796-7.942-3.72l-1.016,0.013c-27.148,0-49.235-22.087-49.235-49.235c0-27.148,22.087-49.234,49.235-49.234
			s49.235,22.087,49.235,49.235c0,9.176-2.538,18.124-7.34,25.878c-1.624,2.623-1.924,5.855-0.814,8.732
			c1.112,2.878,3.506,5.068,6.472,5.919c12.585,3.608,21.376,15.287,21.376,28.4c0,5.586-1.563,11.02-4.521,15.715
			c-1.313,2.086-1.796,4.393-1.356,6.816l13.771,75.553H464.412z"/>
	</g>
</g>
<g>
</g>
<g>
</g>
<g>
</g>
<g>
</g>
<g>
</g>
<g>
</g>
<g>
</g>
<g>
</g>
<g>
</g>
<g>
</g>
<g>
</g>
<g>
</g>
<g>
</g>
<g>
</g>
<g>
</g>
</svg>
