<?xml version="1.0" encoding="UTF-8"?><!DOCTYPE svg PUBLIC "-//W3C//DTD SVG 1.1//EN" "http://www.w3.org/Graphics/SVG/1.1/DTD/svg11.dtd"><svg xmlns="http://www.w3.org/2000/svg"><symbol id="heavy-metal" viewBox="0 0 30.453 30.453"><path d="M7.374 20.361a.5.5 0 0 1-.5-.5V3.5c0-1.93 1.481-3.5 3.303-3.5s3.303 1.57 3.303 3.5v10.637a.5.5 0 0 1-1 0V3.5c0-1.378-1.033-2.5-2.303-2.5S7.874 2.122 7.874 3.5v16.361a.5.5 0 0 1-.5.5z"/><path d="M9.539 30.453a.502.502 0 0 1-.354-.146l-7.412-7.412C.949 22.071.396 21.06.218 20.049c-.189-1.077.062-2.025.708-2.67 1.287-1.288 3.416-1.256 4.745.074l2.056 2.056a.5.5 0 0 1-.707.707L4.964 18.16c-.94-.939-2.435-.972-3.331-.074-.409.409-.562 1.044-.431 1.79.144.811.597 1.632 1.277 2.313L9.893 29.6a.5.5 0 0 1-.354.853zM18.586 15.209a.5.5 0 0 1-.5-.5v-2.563c0-1.138-1.033-2.063-2.303-2.063-1.271 0-2.304.925-2.304 2.063v2.563a.5.5 0 0 1-1 0v-2.563c0-1.689 1.482-3.063 3.304-3.063s3.303 1.374 3.303 3.063v2.563a.5.5 0 0 1-.5.5z"/><path d="M24.19 15.209a.5.5 0 0 1-.5-.5v-2.27c0-.959-1.054-1.77-2.302-1.77s-2.303.811-2.303 1.77v2.27a.5.5 0 0 1-1 0v-2.27c0-1.527 1.481-2.77 3.303-2.77 1.82 0 3.302 1.243 3.302 2.77v2.27a.5.5 0 0 1-.5.5z"/><path d="M29.796 21.627a.5.5 0 0 1-.5-.5V6.25c0-1.378-1.033-2.5-2.303-2.5s-2.303 1.122-2.303 2.5v8.459a.5.5 0 0 1-1 0V6.25c0-1.93 1.481-3.5 3.303-3.5s3.303 1.57 3.303 3.5v14.877a.5.5 0 0 1-.5.5z"/><path d="M25.796 30.449H9.578c-.276 0-.519-.224-.519-.5s.206-.5.482-.5h16.254c1.93 0 3.5-1.57 3.5-3.5v-5.396a.5.5 0 0 1 1 0v5.396a4.503 4.503 0 0 1-4.499 4.5z"/></symbol><symbol id="no-smoking" viewBox="0 0 512 512"><path d="M496.976 275.333H290.189c-5.438 0-9.847 4.409-9.847 9.847s4.409 9.847 9.847 9.847h138.133v59.082h-79.051c-5.438 0-9.847 4.409-9.847 9.847s4.409 9.847 9.847 9.847h147.705c5.438 0 10.122-4.022 10.122-9.46v-78.776c0-5.438-4.684-10.234-10.122-10.234zm-9.572 78.776h-39.388v-59.082h39.388v59.082zM387.005 496.727L91.595 53.623c-3.015-4.524-9.131-5.749-13.655-2.731-4.525 3.016-5.748 8.937-2.731 13.462l140.782 210.979H14.474c-5.438 0-9.572 4.796-9.572 10.234v78.776c0 5.438 4.134 9.46 9.572 9.46h265.869c.416 0 .811.12 1.213.072l89.064 133.692c1.897 2.846 5.02 4.433 8.203 4.433 1.876 0 3.774-.51 5.452-1.63a9.832 9.832 0 0 0 2.73-13.643zM24.596 354.109v-59.082H229.12l39.388 59.082H24.596zM486.97 244.321l-15.24-83.776a49.059 49.059 0 0 0 5.552-22.707c0-17.865-9.798-34.122-24.84-42.751a68.896 68.896 0 0 0 5.146-26.16C457.588 30.918 426.667 0 388.659 0S319.73 30.923 319.73 68.931c0 34.668 25.723 63.439 59.087 68.229-.003.233-.005.467-.005.701 0 26.083 20.389 47.493 46.065 49.134l23.491 62.448c1.441 3.843 5.115 6.196 9.219 6.196h19.694c2.92 0 5.689-1.102 7.56-3.344 1.872-2.243 2.651-5.101 2.129-7.974zm-22.558-8.376l-23.515-62.51c-1.557-4.154-5.688-6.651-10.118-6.253-.897.082-1.815.172-2.732.172-16.289 0-29.541-13.228-29.541-29.517 0-2.512.314-4.991.933-7.39a9.842 9.842 0 0 0-1.822-8.574 9.92 9.92 0 0 0-7.942-3.72l-1.016.013c-27.148 0-49.235-22.087-49.235-49.235s22.087-49.234 49.235-49.234 49.235 22.087 49.235 49.235c0 9.176-2.538 18.124-7.34 25.878a9.849 9.849 0 0 0 5.658 14.651c12.585 3.608 21.376 15.287 21.376 28.4 0 5.586-1.563 11.02-4.521 15.715-1.313 2.086-1.796 4.393-1.356 6.816l13.771 75.553h-1.07z"/></symbol></svg>